<svg xmlns="http://www.w3.org/2000/svg" version="1.1" xmlnsXlink="http://www.w3.org/1999/xlink" xmlnsSvgjs="http://svgjs.com/svgjs" width="512" height="512" x="0" y="0" viewBox="0 0 32 32" style="enable-background:new 0 0 512 512" xml:space="preserve" fill-rule="evenodd" class=""><g><path d="M26.029 4a3 3 0 0 0-3-3H8.971a3 3 0 0 0-3 3v23.494a2.999 2.999 0 0 0 4.628 2.519L16 26.524l5.401 3.489a2.997 2.997 0 0 0 4.628-2.519zm-2 0v23.494a1 1 0 0 1-1.542.839l-5.944-3.84a1.003 1.003 0 0 0-1.086 0l-5.944 3.84a1 1 0 0 1-1.542-.839V4a1 1 0 0 1 1-1h14.058a1 1 0 0 1 1 1z" fill="#ffaa00" data-original="#000000" opacity="1" class=""></path></g></svg>