<svg xmlns="http://www.w3.org/2000/svg" version="1.1" xmlnsXlink="http://www.w3.org/1999/xlink" xmlnsSvgjs="http://svgjs.com/svgjs" width="512" height="512" x="0" y="0" viewBox="0 0 32 32" style="enable-background:new 0 0 512 512" xml:space="preserve" class=""><g><path fill="#ffb300" d="M25 5.102v22.85a.993.993 0 0 1-1.66.78L16 21.892l-7.34 6.84a.993.993 0 0 1-1.66-.78V5.102a2.055 2.055 0 0 1 2-2.1h14a2.055 2.055 0 0 1 2 2.1z" data-original="#ffb300" class=""></path><path fill="#ffa000" d="M16 20.522v1.37l-7.34 6.84a.993.993 0 0 1-1.66-.78V5.102a2.055 2.055 0 0 1 2-2.1v1a1.054 1.054 0 0 0-1 1.1l-.02 22.9z" data-original="#ffa000" class=""></path></g></svg>