<svg xmlns="http://www.w3.org/2000/svg" version="1.1" xmlnsXlink="http://www.w3.org/1999/xlink" xmlnsSvgjs="http://svgjs.com/svgjs" width="512" height="512" x="0" y="0" viewBox="0 0 24 24" style="enable-background:new 0 0 512 512" xml:space="preserve" fill-rule="evenodd" class=""><g><path d="M14.191 15.605A6.965 6.965 0 0 1 10 17c-3.863 0-7-3.137-7-7s3.137-7 7-7 7 3.137 7 7a6.965 6.965 0 0 1-1.395 4.191l5.102 5.102a1 1 0 0 1-1.414 1.414zM10 5c2.76 0 5 2.24 5 5s-2.24 5-5 5-5-2.24-5-5 2.24-5 5-5z" fill="#ffffff" data-original="#000000" opacity="1" class=""></path></g></svg>